#N canvas 533 239 777 377 12;
#X floatatom 38 196 4 0 999 0 - - -;
#X text 81 195 <-- delay time;
#X text 46 230 read from delay line;
#X obj 38 249 delread~ delay1;
#X obj 14 87 tabplay~ G01-tab;
#X obj 14 63 metro 1000;
#X obj 14 39 loadbang;
#X text 40 146 write to delay line;
#X obj 15 275 +~;
#X obj 24 165 delwrite~ delay1 1000;
#X text 28 107 test signal to delay;
#X text 114 209 (msec);
#X obj 16 303 dac~;
#N canvas 0 96 450 300 (subpatch) 0;
#X array G01-tab 62079 float 0;
#X coords 0 1 62078 -1 200 140 1;
#X restore 448 54 graph;
#X obj 409 210 loadbang;
#X obj 408 255 soundfiler;
#X msg 409 233 read -resize voice.wav G01-tab;
#X obj 275 86 float;
#X text 103 7 Based on G01.delay.pd.;
#X obj 275 61 metro 100;
#X obj 324 111 % 1000;
#X obj 324 86 + 1;
#X text 207 36 Increase delay over time.;
#X connect 0 0 3 0;
#X connect 3 0 8 1;
#X connect 4 0 8 0;
#X connect 4 0 9 0;
#X connect 5 0 4 0;
#X connect 6 0 5 0;
#X connect 6 0 19 0;
#X connect 8 0 12 0;
#X connect 8 0 12 1;
#X connect 14 0 16 0;
#X connect 16 0 15 0;
#X connect 17 0 0 0;
#X connect 17 0 21 0;
#X connect 19 0 17 0;
#X connect 20 0 17 1;
#X connect 21 0 20 0;
